<svg width="78" height="48" viewBox="0 0 78 48" fill="none" xmlns="http://www.w3.org/2000/svg">
<g clip-path="url(#clip0_4612_399)">
<path d="M16.3767 6.16887V7.98248H12.0057C10.9604 7.98248 10.6243 7.51462 10.6243 6.59073V0H12.906V5.82718C12.906 6.09002 12.9666 6.16887 13.254 6.16887H16.3767Z" fill="white"/>
<path d="M24.039 0V7.98248H21.781V6.65907H19.0063L18.4422 7.98248H16.0168L18.5503 2.16712C19.3187 0.411346 19.8355 0 21.781 0L24.039 0ZM21.781 1.82412C21.2525 1.89245 20.8557 2.36031 20.4233 3.36305L19.7867 4.84547H21.7797V1.82412H21.781Z" fill="white"/>
<path d="M71.0336 18.7366C71.0336 21.2796 70.4088 22.7278 67.1187 22.7278H63.6836V14.7454H67.1187C70.4088 14.7454 71.0336 16.1936 71.0336 18.7366ZM68.7519 18.7366C68.7519 16.8665 67.9953 16.559 67.2386 16.559H65.9653V20.9156H67.2386C67.9953 20.9156 68.7519 20.6185 68.7519 18.7379V18.7366Z" fill="white"/>
<path d="M73.9282 16.9007V17.8245H77.3989V19.6487H73.9282V20.5725C73.9282 20.8354 73.9889 20.9142 74.2762 20.9142H77.9987V22.7278H73.0266C71.9813 22.7278 71.6452 22.26 71.6452 21.3361V16.1476C71.6452 15.2119 71.9813 14.7454 73.0266 14.7454H77.9987V16.559H74.2762C73.9875 16.559 73.9282 16.6496 73.9282 16.9007Z" fill="white"/>
<path d="M5.75239 30.8707V32.6843H1.38142C0.336127 32.6843 0 32.2164 0 31.2925V24.7018H2.28171V30.529C2.28171 30.7918 2.34235 30.8707 2.6297 30.8707H5.75239Z" fill="white"/>
<path d="M13.4148 24.7018V32.6843H11.1568V31.3609H8.38207L7.81791 32.6843H5.39252L7.92599 26.8689C8.69447 25.1131 9.21119 24.7018 11.1568 24.7018H13.4148ZM11.1568 26.5259C10.6282 26.5942 10.2314 27.0621 9.79908 28.0648L9.16242 29.5473H11.1555V26.5259H11.1568Z" fill="white"/>
<path d="M10.6243 22.7279H14.2544V10.0274H10.6243V22.7279ZM48.6897 10.009H37.5685V12.8937H41.3134V20.2611C42.5801 20.2861 43.7994 20.499 44.9435 20.8735V12.8937H48.6884V10.009H48.6897ZM0 12.2589V22.7279H3.63018V18.2819H9.05699V15.3972H3.63018V13.4561C3.63018 13.0566 3.72508 12.9121 4.1838 12.9121H9.87819V10.0274H2.19735C0.535168 10.0274 0 10.7712 0 12.2589ZM55.5111 10.0274C52.4148 10.0274 51.5936 10.6805 50.3703 13.4745L46.8048 21.6568C47.4032 21.9682 47.9739 22.327 48.5104 22.7279H50.199L51.0966 20.6225H55.5111V22.7279H59.1031V10.0274H55.5111ZM55.5111 17.7378H52.3383L53.3507 15.3788C54.0387 13.7821 54.6688 13.0382 55.5098 12.9291V17.7378H55.5111ZM15.6121 12.2589V20.5147C15.6121 21.984 16.1473 22.7279 17.8095 22.7279H25.721V19.8432H19.7972C19.3385 19.8432 19.2436 19.7157 19.2436 19.2991V17.8298H24.7667V14.9267H19.2436V13.4575C19.2436 13.0579 19.3385 12.9134 19.7972 12.9134H25.721V10.0287H17.8095C16.1473 10.0287 15.6121 10.7725 15.6121 12.2602V12.2589ZM32.9629 15.1081C31.2045 15.0174 29.8481 14.9806 29.8481 13.9293C29.8481 13.1854 30.3068 12.6045 31.8543 12.6045C33.4018 12.6045 33.995 13.2038 33.995 14.5101H37.1862C37.0913 11.2798 35.2565 9.91962 31.8543 9.91962C28.4522 9.91962 26.5224 11.1891 26.5224 14.2749C26.5224 16.9782 28.6631 17.5591 31.0134 17.722C32.7718 17.8495 34.3193 17.7759 34.3193 18.8286C34.3193 19.5908 33.7076 20.0442 32.0837 20.0442C30.6891 20.0442 29.6188 19.554 29.6188 18.4843H26.4275C26.5422 22.1128 28.5682 22.8396 31.9888 22.8396C32.5872 22.8396 33.1277 22.8028 33.6127 22.7344C34.5974 21.9972 35.698 21.4018 36.8817 20.98C37.3312 20.2887 37.5105 19.4384 37.5105 18.4856C37.5105 16.0911 35.8483 15.2921 32.9629 15.1107V15.1081Z" fill="white"/>
<path d="M23.119 27.9203H23.8242C24.992 27.9203 26.1388 28.2975 26.4908 30.3686H28.8858C29.0638 29.3646 29.367 28.4013 29.7756 27.4971C28.932 25.7637 27.1947 24.5927 23.6251 24.5927H23.3167C17.2993 24.5927 16.1539 27.8993 16.1539 32.0429C16.1539 36.1866 17.3007 39.4932 23.3167 39.4932H23.6251C26.9073 39.4932 28.6407 38.5023 29.5541 36.9949C29.1442 35.9632 28.8713 34.8632 28.758 33.7172H26.4908C26.1375 35.7897 24.992 36.1656 23.8242 36.1656H23.119C21.7309 36.1656 20.3416 35.4743 20.3416 32.0429C20.3416 28.6115 21.7296 27.9203 23.119 27.9203ZM65.1507 30.0966C65.1507 27.7941 64.0922 24.7386 60.6545 24.7176H52.0799V26.9346C52.9433 28.6063 53.4297 30.5001 53.4297 32.5055C53.4297 34.511 52.9433 36.4048 52.0799 38.0764V39.367H56.2677V35.4112H60.6321C64.0711 35.3902 65.1507 32.3767 65.1507 30.0953V30.0966ZM59.1109 32.064H56.2677V28.0464H59.1109C60.1694 28.0464 60.7863 28.6746 60.7863 30.1189C60.7863 31.5633 60.1035 32.0653 59.1109 32.0653V32.064ZM73.8557 24.7189C70.2849 24.7189 69.3371 25.4719 67.9267 28.6957L63.2763 39.3683H67.729L68.765 36.941H73.857V39.3683H78.0013V24.7189H73.857H73.8557ZM73.8557 33.6134H70.1966L71.3644 30.893C72.158 29.0518 72.8856 28.1936 73.8544 28.0675V33.6134H73.8557Z" fill="white"/>
<path d="M52.5808 32.52C52.5808 26.1789 47.4242 21.0378 41.0642 21.0378C34.7041 21.0378 29.5475 26.1789 29.5475 32.52C29.5475 36.7754 31.8688 40.4906 35.3184 42.4738L34.6422 46.3954H34.2929L34.0161 48H48.111L47.8342 46.3954H47.4849L46.8087 42.4738C50.2583 40.4906 52.5795 36.7754 52.5795 32.52H52.5808ZM31.8398 32.52C31.8398 27.4406 35.9696 23.3232 41.0642 23.3232C42.9913 23.3232 44.78 23.9133 46.259 24.9213C42.6908 22.4965 37.4722 23.9303 34.6013 28.124C31.7344 32.3137 32.2946 37.673 35.8496 40.1056C33.4282 38.4484 31.8398 35.6701 31.8398 32.52ZM44.7036 37.2524C46.8034 35.6465 48.0121 33.3952 48.1215 31.2965C48.1413 32.9471 47.6325 34.7016 46.5635 36.2628C44.1197 39.8335 39.6762 41.0531 36.6392 38.9872C35.7125 38.3564 35.0244 37.4929 34.5842 36.4968C34.7055 36.7241 34.8465 36.9436 35.0086 37.1539C37.0188 39.7665 41.3595 39.8112 44.7049 37.2537L44.7036 37.2524ZM35.5912 32.52C35.5912 31.0625 36.1607 29.6918 37.1941 28.6615C38.2275 27.6311 39.6024 27.0634 41.0642 27.0634C42.526 27.0634 43.9008 27.6311 44.9343 28.6615C45.9677 29.6918 46.5371 31.0625 46.5371 32.52C46.5371 33.9774 45.9677 35.3482 44.9343 36.3785C43.9008 37.4088 42.526 37.9766 41.0642 37.9766C39.6024 37.9766 38.2275 37.4088 37.1941 36.3785C36.1607 35.3482 35.5912 33.9774 35.5912 32.52ZM47.1198 27.8887C45.1096 25.2761 40.7689 25.2314 37.4235 27.7888C35.3223 29.3948 34.1149 31.646 34.0055 33.7448C33.9857 32.0942 34.4945 30.3397 35.5636 28.7784C38.0074 25.2078 42.4509 23.9882 45.4879 26.0541C46.4145 26.6849 47.1026 27.5483 47.5429 28.5445C47.4216 28.3172 47.2806 28.0977 47.1184 27.8874L47.1198 27.8887ZM41.0642 41.7168C39.1371 41.7168 37.3483 41.1267 35.8694 40.1187C39.4376 42.5434 44.6561 41.1096 47.5271 36.916C50.394 32.7263 49.8338 27.3683 46.2801 24.9344C48.7015 26.5916 50.2899 29.3698 50.2899 32.52C50.2899 37.5994 46.1601 41.7168 41.0655 41.7168H41.0642ZM45.8728 32.52C45.8728 29.8758 43.7163 27.7258 41.0642 27.7258C38.4121 27.7258 36.2556 29.8771 36.2556 32.52C36.2556 35.1628 38.4134 37.3142 41.0642 37.3142C43.715 37.3142 45.8728 35.1628 45.8728 32.52ZM42.5432 36.9081L42.2149 36.6545C42.3533 36.4915 42.4904 36.3246 42.6236 36.1564C42.7857 35.9501 42.9465 35.7372 43.0994 35.5243L44.469 34.7002L45.012 34.9552C44.4466 35.862 43.5766 36.5625 42.5445 36.9081H42.5432ZM45.6144 31.604C45.6737 31.8997 45.7054 32.2072 45.7054 32.52C45.7054 33.3558 45.4813 34.1417 45.0911 34.8198L44.5546 34.5675C44.6192 34.3073 44.664 34.0418 44.6878 33.775C44.7141 33.4741 44.7141 33.1679 44.6878 32.8656C44.813 32.6606 44.9185 32.4424 45.0028 32.2177C45.0832 32.0022 45.1452 31.7788 45.186 31.5527L45.6144 31.6027V31.604ZM44.6759 30.7116C44.8077 30.9613 44.9303 31.2189 45.041 31.4778C45.0015 31.7117 44.9395 31.943 44.8565 32.1651C44.7787 32.3728 44.6812 32.5752 44.5665 32.7657L43.1838 32.608C43.0467 32.3452 42.9043 32.0837 42.758 31.8274C42.5985 31.5462 42.4311 31.2662 42.2598 30.9916C42.3415 30.759 42.4272 30.5237 42.5142 30.2924C42.5946 30.0795 42.6776 29.864 42.762 29.6524C43.0058 29.6379 43.251 29.6458 43.4935 29.6747C43.711 29.701 43.9285 29.7457 44.1394 29.8075C44.3319 30.0992 44.5125 30.4041 44.6746 30.713L44.6759 30.7116ZM43.044 32.6777L42.1161 34.2245C41.8116 34.2298 41.5045 34.2324 41.2 34.2324C40.8942 34.2324 40.587 34.2298 40.2825 34.2245C40.1164 33.9525 39.9517 33.6765 39.7935 33.4005C39.6446 33.1416 39.4969 32.8788 39.3546 32.6159C39.5141 32.3176 39.6854 32.0206 39.8607 31.7328C39.9952 31.512 40.1362 31.2925 40.2799 31.077H42.1319C42.3006 31.3477 42.4667 31.6263 42.6236 31.9036C42.7686 32.1573 42.9096 32.4175 43.0454 32.6777H43.044ZM41.2777 27.9847L41.5783 27.9203C42.5616 28.028 43.4527 28.4446 44.1539 29.0689C44.1487 29.1635 44.1434 29.2568 44.1381 29.3528C44.1328 29.4487 44.1262 29.5433 44.1197 29.6379C43.9219 29.5841 43.7189 29.5433 43.5146 29.5183C43.2563 29.4868 42.994 29.4789 42.733 29.496C42.4825 29.312 42.2215 29.1372 41.9553 28.9769C41.7351 28.8442 41.5071 28.7193 41.2777 28.605V27.9847ZM40.8678 27.8966L41.1222 27.9781V28.6037C40.8942 28.7127 40.6661 28.8297 40.4473 28.9545C40.185 29.1031 39.9266 29.2647 39.6775 29.4355C39.4297 29.4329 39.1806 29.4421 38.9341 29.4631C38.677 29.4855 38.4187 29.5197 38.1643 29.567C38.1537 29.4671 38.1432 29.3672 38.1326 29.2673C38.1221 29.1648 38.1102 29.0636 38.0997 28.9624C38.8576 28.3342 39.8185 27.9413 40.8678 27.8966ZM37.583 30.4803C37.7319 30.207 37.9178 29.956 38.134 29.7312C38.4015 29.68 38.6744 29.6419 38.9472 29.6182C39.1792 29.5985 39.4139 29.5893 39.6472 29.5906C39.7329 29.814 39.8185 30.0414 39.899 30.2661C39.9846 30.504 40.0703 30.7471 40.1507 30.9863C40.0044 31.2045 39.862 31.4266 39.7263 31.65C39.5483 31.9404 39.377 32.2401 39.2162 32.5397L37.7398 32.6422C37.6357 32.4306 37.5408 32.2125 37.4604 31.9904C37.3813 31.7735 37.3127 31.5488 37.2574 31.3241C37.3286 31.0297 37.438 30.7445 37.583 30.4777V30.4803ZM36.4217 32.52C36.4217 32.2019 36.4546 31.8918 36.5153 31.5908L37.119 31.4226C37.173 31.6329 37.2376 31.8419 37.3114 32.0456C37.3971 32.2808 37.4986 32.5147 37.6106 32.7395C37.5711 33.0956 37.5606 33.4583 37.5803 33.8158C37.5922 34.0471 37.6172 34.281 37.6541 34.5097L37.0583 34.8593C36.6537 34.1733 36.4204 33.3729 36.4204 32.5213L36.4217 32.52ZM39.63 36.9226C38.5927 36.5861 37.7148 35.8935 37.1414 34.992L37.7332 34.6451C37.96 34.8304 38.2025 35.0012 38.4543 35.1497C38.6955 35.293 38.9486 35.4191 39.2082 35.5269C39.3203 35.7385 39.4481 35.9448 39.5892 36.1393C39.7184 36.3193 39.8607 36.4915 40.011 36.6532L39.63 36.9213V36.9226ZM39.7157 36.0486C39.5839 35.8659 39.464 35.6728 39.3572 35.4756L40.2733 34.3809C40.5804 34.3862 40.8915 34.3901 41.2 34.3901C41.5058 34.3901 41.8169 34.3875 42.1227 34.3822L42.9478 35.4691C42.8028 35.6688 42.6526 35.8686 42.501 36.0618C42.3599 36.2418 42.2123 36.4205 42.0647 36.594C41.7444 36.6282 41.4201 36.6453 41.0971 36.644C40.7887 36.644 40.4763 36.6269 40.1692 36.594C40.007 36.4245 39.8555 36.2418 39.7184 36.0513L39.7157 36.0486Z" fill="url(#paint0_linear_4612_399)"/>
</g>
<defs>
<linearGradient id="paint0_linear_4612_399" x1="30.5111" y1="21.478" x2="52.6006" y2="50.767" gradientUnits="userSpaceOnUse">
<stop stop-color="#432F12"/>
<stop offset="0.08" stop-color="#C09B61"/>
<stop offset="0.24" stop-color="#F7F29D"/>
<stop offset="0.36" stop-color="#D79F60"/>
<stop offset="0.46" stop-color="#765C38"/>
<stop offset="0.59" stop-color="#C09B61"/>
<stop offset="0.74" stop-color="#C59F5F"/>
<stop offset="0.86" stop-color="#F9F39D"/>
<stop offset="1" stop-color="#634525"/>
</linearGradient>
<clipPath id="clip0_4612_399">
<rect width="78" height="48" fill="white"/>
</clipPath>
</defs>
</svg>
